<svg xmlns="http://www.w3.org/2000/svg" viewBox="0 0 94.54 24.56"><defs><style>.cls-1,.cls-2{fill:#fff;}.cls-1{fill-rule:evenodd;}</style></defs><g id="Camada_2" data-name="Camada 2"><g id="Layer_1" data-name="Layer 1"><path class="cls-1" d="M78.56,15.38l3.07-4.65a8.21,8.21,0,0,0,2.19,2,4.54,4.54,0,0,0,2.33.69,1.56,1.56,0,0,0,.81-.19.58.58,0,0,0,.31-.51c0-.33-.45-.68-1.34-1.05l-.45-.19a8.21,8.21,0,0,1-3.21-2.2,4.62,4.62,0,0,1-1-3,5.83,5.83,0,0,1,2-4.55A7.37,7.37,0,0,1,88.35,0a9.93,9.93,0,0,1,3.37.56,8.76,8.76,0,0,1,2.82,1.68L92.14,6.6a10,10,0,0,0-1.89-1.41,3.3,3.3,0,0,0-1.56-.46,1.1,1.1,0,0,0-.7.21.68.68,0,0,0-.27.56c0,.4.52.83,1.55,1.28l.65.29a7.18,7.18,0,0,1,2.83,2.09,4.86,4.86,0,0,1,.83,2.93,6,6,0,0,1-2.09,4.66,7.64,7.64,0,0,1-5.28,1.86,10.07,10.07,0,0,1-4-.82,13,13,0,0,1-3.69-2.41ZM69.48,1,69.77.4h6.78l.76,6.08L69.48,1ZM60.82,18.19h6.69l.93-2.37h4.13l.12,2.37h6.1l-1.22-9.7L68.8,2.32l-8,15.87Zm9.32-6.57h2.19l-.07-1.91c0-.11,0-.25,0-.45,0-.8-.06-1.43-.06-1.92,0-.32,0-.57,0-.75s0-.34,0-.49c-.15.48-.29.94-.44,1.38s-.29.84-.42,1.18l-1.21,3ZM50.71,18.19,47.8.4H54L54.64,6c.08.74.14,1.44.18,2.12s.07,1.35.08,2q.26-.94.6-1.92c.22-.65.48-1.3.77-2L58.82.4h6.81L56.27,18.19Z"/><path class="cls-1" d="M37.68,18.19,40.85.4h6.3L44,18.19Zm-20.47,0L20.37.4h6.29l2,5.65c0,.09.08.23.15.41a23.33,23.33,0,0,1,.91,3.2L31.34.4h6.22L34.38,18.19H28.11L24.93,9a34.9,34.9,0,0,1-.53,4.06l0,.15-.88,5ZM1.88.4.53,8c-.2,1.11-.33,2-.41,2.6A12.55,12.55,0,0,0,0,12.16a6,6,0,0,0,2,4.77,8,8,0,0,0,5.45,1.73,8.17,8.17,0,0,0,3.67-.82,7.35,7.35,0,0,0,2.76-2.34,7.76,7.76,0,0,0,1-2,21.57,21.57,0,0,0,.79-3.16L17.4.4H11.13l-1.58,9a9.57,9.57,0,0,1-.83,3,1.31,1.31,0,0,1-1.17.58,1.2,1.2,0,0,1-1-.37,1.57,1.57,0,0,1-.33-1.07,5.48,5.48,0,0,1,.06-.69c0-.29.13-.88.29-1.75L8.17.4Z"/><path class="cls-2" d="M.5,21,.24,22.5c0,.17-.06.33-.08.46a2.35,2.35,0,0,0,0,.34,1.16,1.16,0,0,0,.69,1.11,2.07,2.07,0,0,0,.8.15,2,2,0,0,0,.5-.07,1.63,1.63,0,0,0,.44-.21A1.33,1.33,0,0,0,2.9,24a1.58,1.58,0,0,0,.22-.43,3.8,3.8,0,0,0,.14-.58L3.61,21H2.36L2,22.76q0,.18-.06.3a1,1,0,0,1-.07.22.34.34,0,0,1-.1.13.43.43,0,0,1-.17,0,.29.29,0,0,1-.19-.07.33.33,0,0,1-.06-.21.69.69,0,0,1,0-.18,2,2,0,0,1,.05-.29L1.76,21Zm3.08,3.44L4.21,21H5.47l.39,1.09c0,.08.07.18.11.3s.07.24.1.4L6.4,21H7.65L7,24.47H5.76l-.64-1.78a2.58,2.58,0,0,1,0,.39c0,.14,0,.28-.07.42l-.18,1Zm4.09,0H8.93L9.57,21H8.3l-.63,3.44Zm2.61,0h1.11L13.27,21H11.9l-.51,1.12a6.86,6.86,0,0,0-.27.75c0-.14,0-.27,0-.4l0-.39L10.94,21H9.7l.58,3.44Zm2.53,0L13.45,21H15.8l-.17.93H14.51l-.06.33H15.5l-.16.88H14.29l-.07.36h1.22l-.17.94Zm4.56-1.92.12-.66h.08a.64.64,0,0,1,.34.07.21.21,0,0,1,.1.21.29.29,0,0,1-.13.29.69.69,0,0,1-.42.09Zm-1.59,1.92H17l.23-1.25.37,1.25H18.9l-.5-1.32a1.14,1.14,0,0,0,.46-.21.89.89,0,0,0,.29-.37,1.27,1.27,0,0,0,.1-.5.89.89,0,0,0-.38-.77A2.06,2.06,0,0,0,17.73,21H16.41l-.63,3.44Zm3.36-.55.61-.9a1.51,1.51,0,0,0,.45.4,1,1,0,0,0,.45.13.35.35,0,0,0,.17,0s.06-.05.06-.1a.09.09,0,0,0,0-.08l-.12-.08-.2-.08a1.74,1.74,0,0,1-.47-.26.94.94,0,0,1-.28-.32.93.93,0,0,1-.09-.42,1.06,1.06,0,0,1,.1-.48,1.08,1.08,0,0,1,.28-.39,1.41,1.41,0,0,1,.45-.25A1.78,1.78,0,0,1,21.1,21a2,2,0,0,1,.67.1,1.81,1.81,0,0,1,.57.33l-.48.84a2.28,2.28,0,0,0-.38-.27.68.68,0,0,0-.32-.09.21.21,0,0,0-.14,0A.14.14,0,0,0,21,22a.14.14,0,0,0,.06.11.49.49,0,0,0,.15.09l.23.1a1.93,1.93,0,0,1,.41.24.79.79,0,0,1,.24.31.93.93,0,0,1,.08.42,1.13,1.13,0,0,1-.1.49,1.35,1.35,0,0,1-.31.4,1.4,1.4,0,0,1-.46.27,1.89,1.89,0,0,1-.6.1,2,2,0,0,1-.79-.16,2.37,2.37,0,0,1-.74-.47Zm3.09.55h1.26L24.13,21H22.86l-.63,3.44Zm1.92,0h1.08a5.08,5.08,0,0,0,.7,0,3.4,3.4,0,0,0,.59-.14A2,2,0,0,0,27,24a1.8,1.8,0,0,0,.39-.39,2.23,2.23,0,0,0,.24-.49,1.77,1.77,0,0,0,.08-.56,1.7,1.7,0,0,0-.09-.57,1.67,1.67,0,0,0-.28-.46,1.77,1.77,0,0,0-.46-.34,1.82,1.82,0,0,0-.49-.13,7,7,0,0,0-.71,0h-.92l-.64,3.44Zm1.44-1,.25-1.36h0a.74.74,0,0,1,.34.07.45.45,0,0,1,.21.2.61.61,0,0,1,.08.3.77.77,0,0,1-.11.42.74.74,0,0,1-.3.28,1.14,1.14,0,0,1-.48.09Zm1.87,1L29.25,21h1.36l.45,3.44H29.84l0-.46H29l-.19.46Zm1.87-1.27h.44l0-.37a1.62,1.62,0,0,0,0-.21v-.49a2.62,2.62,0,0,1-.1.3,1.5,1.5,0,0,1-.07.2l-.24.57Zm1.9,1.27h1.08a5.08,5.08,0,0,0,.7,0,3.4,3.4,0,0,0,.59-.14,2.12,2.12,0,0,0,.51-.28,1.8,1.8,0,0,0,.39-.39,1.86,1.86,0,0,0,.24-.49,1.77,1.77,0,0,0,.09-.56,1.7,1.7,0,0,0-.1-.57,1.46,1.46,0,0,0-.28-.46A1.77,1.77,0,0,0,34,21.2a1.82,1.82,0,0,0-.49-.13,7,7,0,0,0-.71,0h-.92l-.64,3.44Zm1.44-1,.25-1.36h0a.74.74,0,0,1,.34.07.45.45,0,0,1,.21.2.61.61,0,0,1,.08.3.77.77,0,0,1-.11.42.74.74,0,0,1-.3.28,1.14,1.14,0,0,1-.48.09Zm2.3,1h2.46l.17-.94H36.38l.07-.36h1l.16-.88h-1l.06-.33h1.12L38,21H35.6L35,24.47Zm4.61,0h1.08a5,5,0,0,0,.7,0,3.52,3.52,0,0,0,.6-.14,2.06,2.06,0,0,0,.5-.28,1.8,1.8,0,0,0,.39-.39,1.59,1.59,0,0,0,.24-.49,1.77,1.77,0,0,0,.09-.56,1.7,1.7,0,0,0-.1-.57,1.46,1.46,0,0,0-.28-.46,1.62,1.62,0,0,0-.46-.34,1.82,1.82,0,0,0-.49-.13,6.81,6.81,0,0,0-.7,0h-.93l-.64,3.44Zm1.44-1,.25-1.36h0a.71.71,0,0,1,.34.07.45.45,0,0,1,.21.2.61.61,0,0,1,.08.3.77.77,0,0,1-.11.42.63.63,0,0,1-.3.28,1.13,1.13,0,0,1-.47.09Zm4.21,1.13a2.16,2.16,0,0,0,.86-.17,1.93,1.93,0,0,0,.67-.5,1.79,1.79,0,0,0,.35-.61,2.13,2.13,0,0,0,.12-.72,1.71,1.71,0,0,0-.12-.65,1.41,1.41,0,0,0-.35-.51,1.68,1.68,0,0,0-.55-.33A2,2,0,0,0,45.5,21a2.27,2.27,0,0,0-.59.08,1.87,1.87,0,0,0-.52.23,2.36,2.36,0,0,0-.42.36,2.06,2.06,0,0,0-.35.61,2.09,2.09,0,0,0-.12.72,1.77,1.77,0,0,0,.07.46,1.38,1.38,0,0,0,.18.41,1.3,1.3,0,0,0,.28.34,1.62,1.62,0,0,0,.53.3,2.3,2.3,0,0,0,.67.1Zm.19-2.47a.55.55,0,0,1,.29.08.51.51,0,0,1,.21.2.74.74,0,0,1,.07.31.87.87,0,0,1-.05.28.61.61,0,0,1-.15.24.56.56,0,0,1-.21.16.6.6,0,0,1-.27.06.56.56,0,0,1-.3-.08.51.51,0,0,1-.2-.21.62.62,0,0,1-.07-.31.71.71,0,0,1,0-.29.79.79,0,0,1,.14-.23.71.71,0,0,1,.22-.15.6.6,0,0,1,.27-.06Zm4.33,2.38h1.11L52.74,21H51.37l-.51,1.12a5.26,5.26,0,0,0-.27.75c0-.14,0-.27,0-.4l0-.39L50.41,21H49.17l.58,3.44Zm2,0L53.56,21h1.36l.44,3.44H54.14l0-.46h-.83l-.18.46Zm1.87-1.27h.44v-.37a1.34,1.34,0,0,1,0-.21,1.93,1.93,0,0,1,0-.25v-.11a.57.57,0,0,1,0-.13l-.1.3-.08.2-.24.57Zm1.91,1.27h2.32l.19-1.06H57L57.44,21H56.17l-.63,3.44Zm2.63,0h2.46l.17-.94H59.59l.06-.36H60.7l.16-.88h-1l.06-.33H61l.17-.93H58.81l-.64,3.44Zm4.62,0h1.08a5.18,5.18,0,0,0,.7,0,3.4,3.4,0,0,0,.59-.14,2.12,2.12,0,0,0,.51-.28,1.56,1.56,0,0,0,.38-.39,1.89,1.89,0,0,0,.25-.49,2.1,2.1,0,0,0,.08-.56,1.7,1.7,0,0,0-.09-.57,1.51,1.51,0,0,0-.75-.8,1.72,1.72,0,0,0-.49-.13,6.64,6.64,0,0,0-.7,0h-.93l-.63,3.44Zm1.43-1,.25-1.36h0a.67.67,0,0,1,.33.07.43.43,0,0,1,.22.2.6.6,0,0,1,.07.3.77.77,0,0,1-.1.42.74.74,0,0,1-.3.28,1.14,1.14,0,0,1-.48.09Zm4.22,1.13a2.11,2.11,0,0,0,.85-.17,1.84,1.84,0,0,0,.67-.5,2,2,0,0,0,.36-.61,2.41,2.41,0,0,0,.12-.72,1.71,1.71,0,0,0-.13-.65A1.41,1.41,0,0,0,70,21.4a1.58,1.58,0,0,0-.55-.33A2,2,0,0,0,68.7,21a2.2,2.2,0,0,0-.58.08,1.87,1.87,0,0,0-.52.23,1.82,1.82,0,0,0-.42.36,1.7,1.7,0,0,0-.35.61,2.09,2.09,0,0,0-.12.72,1.76,1.76,0,0,0,.06.46,1.38,1.38,0,0,0,.18.41,1.54,1.54,0,0,0,.28.34,1.78,1.78,0,0,0,.54.3,2.3,2.3,0,0,0,.67.1Zm.18-2.47a.61.61,0,0,1,.3.08.55.55,0,0,1,.2.2.62.62,0,0,1,.08.31.67.67,0,0,1-.06.28.72.72,0,0,1-.14.24.65.65,0,0,1-.21.16.67.67,0,0,1-.28.06.58.58,0,0,1-.3-.08.51.51,0,0,1-.2-.21.74.74,0,0,1-.07-.31.93.93,0,0,1,0-.29.83.83,0,0,1,.15-.23.8.8,0,0,1,.21-.15.66.66,0,0,1,.27-.06Zm3.43,1.83a2.49,2.49,0,0,0,.74.47,2,2,0,0,0,.79.16,1.89,1.89,0,0,0,.6-.1,1.4,1.4,0,0,0,.46-.27,1.08,1.08,0,0,0,.31-.4,1.3,1.3,0,0,0,.11-.49,1.08,1.08,0,0,0-.08-.42.93.93,0,0,0-.25-.31,1.71,1.71,0,0,0-.41-.24l-.23-.1a.49.49,0,0,1-.15-.09.14.14,0,0,1-.06-.11.13.13,0,0,1,.06-.11.2.2,0,0,1,.14,0,.67.67,0,0,1,.31.09,1.93,1.93,0,0,1,.38.27l.48-.84a1.81,1.81,0,0,0-.57-.33A2,2,0,0,0,74,21a1.78,1.78,0,0,0-.59.09,1.26,1.26,0,0,0-.44.25,1.11,1.11,0,0,0-.29.39,1.06,1.06,0,0,0-.1.48.93.93,0,0,0,.09.42,1.06,1.06,0,0,0,.28.32,1.74,1.74,0,0,0,.47.26l.2.08.12.08a.09.09,0,0,1,0,.08c0,.05,0,.07-.06.1a.31.31,0,0,1-.16,0,1,1,0,0,1-.46-.13,1.51,1.51,0,0,1-.45-.4l-.61.9Zm2.73.55L76.57,21h1.36l.45,3.44H77.16l0-.46h-.82l-.19.46Zm1.87-1.27h.44l0-.37a1.62,1.62,0,0,0,0-.21v-.49a2.62,2.62,0,0,1-.1.3,1.5,1.5,0,0,1-.07.2l-.24.57Zm1.9,1.27H79.8L80,23.41h.49a2.12,2.12,0,0,0,.85-.15,1.13,1.13,0,0,0,.52-.44,1.42,1.42,0,0,0,.18-.67,1,1,0,0,0-.38-.84A1.9,1.9,0,0,0,80.51,21H79.19l-.64,3.44Zm1.61-1.95.11-.59h.06a.79.79,0,0,1,.35.06.2.2,0,0,1,.11.19.29.29,0,0,1-.13.25.76.76,0,0,1-.41.09ZM82.69,21l-.27,1.47c0,.17-.06.33-.08.46a2.35,2.35,0,0,0,0,.34,1.17,1.17,0,0,0,.18.67,1.22,1.22,0,0,0,.51.44,2.08,2.08,0,0,0,1.31.08,1.6,1.6,0,0,0,.78-.54,1.91,1.91,0,0,0,.21-.43,3.75,3.75,0,0,0,.15-.58L85.79,21H84.54l-.32,1.73a1.13,1.13,0,0,1-.06.3,1,1,0,0,1-.07.22.34.34,0,0,1-.1.13.38.38,0,0,1-.16,0,.3.3,0,0,1-.2-.07.33.33,0,0,1-.06-.21s0-.1,0-.18,0-.18,0-.29L84,21Zm5.74,2.17a.94.94,0,0,1-.22.12l-.23.07a.71.71,0,0,1-.2,0,.66.66,0,0,1-.32-.07.51.51,0,0,1-.21-.2.76.76,0,0,1-.07-.32.7.7,0,0,1,.1-.38.65.65,0,0,1,.26-.26.76.76,0,0,1,.38-.09,1,1,0,0,1,.34.05l.34.15.21-1.14A2,2,0,0,0,88.4,21a2.18,2.18,0,0,0-1.05,0,1.87,1.87,0,0,0-.52.23,1.82,1.82,0,0,0-.42.36,2.06,2.06,0,0,0-.35.61,2.13,2.13,0,0,0-.12.72,1.76,1.76,0,0,0,.06.46,1.57,1.57,0,0,0,.18.42,1.75,1.75,0,0,0,.28.33,1.63,1.63,0,0,0,.51.3,2,2,0,0,0,.6.1,1.73,1.73,0,0,0,.32,0,1.81,1.81,0,0,0,.31-.09l.23-1.24Zm.06,1.27L90.28,21h1.36l.45,3.44H90.87l0-.46H90l-.19.46Zm1.87-1.27h.43v-.37a1.62,1.62,0,0,0,0-.21v-.49a2.62,2.62,0,0,1-.1.3l-.07.2-.24.57Zm2.79-2.51h.39l.87-.82h-.74l-.52.82Zm-.86,3.78h1.26L94.18,21H92.92Z"/></g></g></svg>